# xmcd
#
# Track frame offsets:
#	150
#	31945
#	63525
#	108531
#	126253
#	146665
#
# Disc length: 2173 seconds
#
# Revision: 1
# Processed by: cddbd v1.5.2PL0 Copyright (c) Steve Scherf et al.
# Submitted via: audiograbber 1.83.01
#
DISCID=56087b06
DTITLE=Grateful Dead - 80-06-20 West High Auditorium, Anchorage AK
DYEAR=1900
DGENRE=
TTITLE0=Drums
TTITLE1=Not Fade Away
TTITLE2=Black Peter
TTITLE3=Around and Around
TTITLE4=Johnny B Goode
TTITLE5=Don't Ease Me In
EXTD=
EXTT0=
EXTT1=
EXTT2=
EXTT3=
EXTT4=
EXTT5=
PLAYORDER=
